<svg xmlns="http://www.w3.org/2000/svg" viewBox="0 0 353.4 271.3"><title>Asset 1</title><g id="Layer_2" data-name="Layer 2"><g id="Layer_1-2" data-name="Layer 1"><path d="M0,214l3-9.9c2.4-7.6,8.2-12.7,13.5-18.2a7.7,7.7,0,0,0,2.2-5.5c-5.1-40.5,3.9-77.8,27-111.2C72.3,30.9,109.2,8.5,155.2,1.1L160,0h37c8.9,2,18,3.4,26.6,6.2C286,26.5,323.9,69,336.6,133.3c2.5,12.9,1.3,26.5,2.1,39.7a8.9,8.9,0,0,0,2.6,5.3c21.9,23,12.7,60.7-17.5,69.7a42.9,42.9,0,0,1-34.3-4.1c-.9,2.3-1.6,4.4-2.5,6.4-4.5,11.5-12.8,18.7-24.9,20.5-13.6,2-25-2.5-32.9-14.1-1.2-1.9-2.2-3.9-3.2-5.8a18.4,18.4,0,0,1,2.3,2.5c9.8,16.2,37.2,15.9,47.5,3.6,4-4.9,7.1-10.5,10.8-16a44.1,44.1,0,0,0,31.6,2.7c29.3-8.2,38.9-45.9,17.6-67.9-1.4-1.4-3-3.4-3.1-5.2-.6-12.7.5-25.7-1.6-38.2-6.4-37.2-24.1-68.5-53.5-92.7C238.8,7.8,194.4-2.3,145.5,7.3c-34.8,6.9-63.6,24.6-86.4,51.8-29,34.5-39.6,74.6-34.8,119.1.2,1.7-1.1,3.9-2.3,5.3s-5.6,4.7-7.7,7.6c-8.7,11.9-10,24.9-3.6,38s17,19.7,31.6,19.3c5.4-.2,10.8-1,16.2-1.6C33.4,261.1,6,249.8,1,222.1A8.1,8.1,0,0,0,0,220Z"/><path d="M65.9,241.4a21.8,21.8,0,0,0,2.5-2.8c2.1-3.2,3.1-1.7,5.1.4,4.7,5,9.1,10.7,14.9,14,9.5,5.5,20,4.8,29.8-.4,3.5-1.9,5.4-2.1,8.4,1.6,13.4,16.7,39.3,15.4,51.9-2l3-4.3c4.1,1.3,8,2.6,11.9,3.5,7.8,1.9,15,0,21.9-3.6s7.6-2.1,10.8,3.3c-4.3.9-8.7,1.4-12.7,2.8-9.1,3.2-18.1,4.3-26.8-.2-4.1-2.2-5.9-1.4-8.2,2.2-11.9,19.1-38.5,20.3-52.5,4.4-1.7-2-3.1-4.2-3.9-5.3-7.5,2.4-14.4,5.8-21.6,6.4a28,28,0,0,1-22-7.7c-3.4-3.3-6-7.4-9.1-11C68.6,241.9,67.1,241.8,65.9,241.4Z"/></g></g></svg>